<svg t="1690588322021" class="icon" viewBox="0 0 1024 1024" version="1.1" xmlns="http://www.w3.org/2000/svg" p-id="42695" width="200" height="200"><path d="M392.533333 149.333333c-14.933333 0-29.866667 4.266667-42.666666 14.933334L51.2 405.333333c-17.066667 14.933333-6.4 42.666667 14.933333 42.666667H128v213.333333H85.333333c-23.466667 0-42.666667 19.2-42.666666 42.666667v128c0 23.466667 19.2 42.666667 42.666666 42.666667h599.466667c23.466667 0 40.533333-19.2 40.533333-42.666667v-128c0-23.466667-19.2-42.666667-42.666666-42.666667h-42.666667V448h61.866667c21.333333 0 32-27.733333 14.933333-42.666667L437.333333 164.266667c-12.8-10.666667-27.733333-14.933333-44.8-14.933334zM181.333333 384l209.066667-170.666667h4.266667l198.4 170.666667H181.333333zM490.666667 661.333333V448h85.333333v213.333333h-85.333333z m-149.333334 0V448h85.333334v213.333333h-85.333334z m-149.333333 0V448h85.333333v213.333333H192z m-85.333333 149.333334v-85.333334h554.666666v85.333334H106.666667z" p-id="42696" fill="#2c2c2c"></path><path d="M669.866667 192c-14.933333 0-29.866667 4.266667-42.666667 14.933333l-4.266667 4.266667c-12.8 12.8-12.8 34.133333 0 46.933333 6.4 6.4 14.933333 8.533333 23.466667 8.533334 6.4 0 12.8-2.133333 17.066667-6.4l10.666666-6.4 177.066667 170.666666h-49.066667c-17.066667 0-32 14.933333-32 32s14.933333 32 32 32H832v170.666667h-32c-17.066667 0-32 14.933333-32 32s14.933333 32 32 32H917.333333v42.666667h-117.333333c-17.066667 0-32 14.933333-32 32s14.933333 32 32 32h140.8c23.466667 0 40.533333-19.2 40.533333-42.666667v-85.333333c0-23.466667-19.2-42.666667-42.666666-42.666667h-42.666667v-170.666667h61.866667c21.333333 0 32-27.733333 14.933333-42.666666L714.666667 206.933333c-12.8-10.666667-27.733333-14.933333-44.8-14.933333z" p-id="42697"></path></svg>