<svg t="1690588584500" class="icon" viewBox="0 0 1024 1024" version="1.1" xmlns="http://www.w3.org/2000/svg" p-id="59100" width="200" height="200"><path d="M712.264125 512.000731h182.856882v365.713764h94.646722v146.285505h-950.855785v-146.285505h673.352181V512.000731z m-109.714129 0v365.713764H419.912543V512.000731h182.491168z m-292.57101 0v365.713764H127.122104V512.000731h182.710596zM511.999269 0.001463a28.525674 28.525674 0 0 1 11.337126 2.340568l5.04685 2.779425 484.351308 346.184648a26.550819 26.550819 0 0 1 9.727986 30.719956 27.940532 27.940532 0 0 1-20.260542 18.06626l-5.85142 0.585142H27.647961a25.965677 25.965677 0 0 1-26.111963-18.651402 26.331391 26.331391 0 0 1 5.339421-26.623962l4.388565-4.095994L495.615292 5.121456A28.086817 28.086817 0 0 1 511.999269 0.001463z" p-id="59101"></path></svg>