<svg t="1690927698149" class="icon" viewBox="0 0 1024 1024" version="1.1" xmlns="http://www.w3.org/2000/svg" p-id="3455" width="200" height="200"><path d="M959.4 347.2c-0.7-1.6-1.5-3.1-2.3-4.6L832.9 134.2l-97.2 212.9h223.7v0.1z m-614.3 0h331.6L510.9 112.5 345.1 347.2zM476.8 102H242.7c-9.2 0-18.9 3.3-27.4 8.7l100.3 219.5L476.8 102z m330.9 6c-7.3-3.8-15.2-6-22.6-6H545l161.3 228.3L807.7 108zM335.6 381l174.8 540.9c0.4 0.1 0.8 0.1 1.2 0.1l174.5-541.1-350.5 0.1zM191.5 139.8L70.7 342.6c-0.9 1.6-1.9 3.1-2.7 4.6h218.1l-94.6-207.4zM63.9 381l1 1.7h1.8c2 2.5 4.8 5.9 8.2 10.1l383.5 478.1L300.1 381H63.9z m896.2 0H721.7L559.6 884l394.1-491.2c2.6-3.6 4.8-7.6 6.4-11.8z" p-id="3456"></path></svg>