<svg t="1690587415136" class="icon" viewBox="0 0 1024 1024" version="1.1" xmlns="http://www.w3.org/2000/svg" p-id="15117" width="200" height="200"><path d="M709.9 1019.2H484.7c-39.4 0-71.5-32.1-71.5-71.5v-1.8c0-23.8 12.1-46.2 32.4-59.9 17.6-11.9 27.7-28.6 27.7-45.7 0-33.8-38.9-62.3-85-62.3s-85 28.5-85 62.3c0 16.7 9.2 32.6 26 44.5 19.2 13.7 30.7 35.6 30.7 58.6v4.5c0 39.3-32 71.3-71.3 71.3H60.4c-33.3 0-60.4-27.1-60.4-60.4V711.9c0-31.5 25.7-57.2 57.2-57.2h2.5c18.9 0 36.7 9.5 47.6 25.5 11.5 16.8 27.9 26.4 45.2 26.4 33 0 59.8-33.9 59.8-75.7s-26.8-75.7-59.8-75.7c-18 0-34.9 10.3-46.4 28.3-10.8 16.9-29 27-48.7 27-31.7 0-57.4-25.7-57.4-57.3v-244c0-36.7 29.9-66.6 66.6-66.6H304c-40.1-24.1-64.5-64.4-64.5-107.5 0-71.8 66.7-130.3 148.8-130.3 82 0 148.8 58.5 148.8 130.3 0 43.1-24.4 83.4-64.5 107.5H710c36.7 0 66.6 29.9 66.6 66.6v245.2c0 1.7 1.4 3.1 3.1 3.1 1.1 0 2.1-0.5 2.5-1.2 23.7-45.4 65.6-72.4 112-72.4 71.9 0 130.3 66.7 130.3 148.8 0 82-58.5 148.8-130.3 148.8-46.4 0-88.2-27.1-112-72.5-0.4-0.7-1.4-1.2-2.5-1.2-1.7 0-3.1 1.4-3.1 3.1v241.8c-0.1 36.6-30 66.5-66.7 66.5zM388.3 721.7c77.9 0 141.3 53.2 141.3 118.6 0 36.2-19.1 69.9-52.5 92.4-4.8 3.2-7.6 8.1-7.6 13.2v1.8c0 8.4 6.8 15.2 15.2 15.2H710c5.7 0 10.3-4.6 10.3-10.3V710.7c0-32.8 26.7-59.4 59.4-59.4 22.2 0 42.3 12.1 52.4 31.5 13.8 26.4 37 42.2 62 42.2 40.8 0 74-41.5 74-92.4 0-51-33.2-92.4-74-92.4-25 0-48.2 15.8-62 42.2-10.2 19.4-30.2 31.5-52.4 31.5-32.8 0-59.4-26.7-59.4-59.4V309.2c0-5.7-4.6-10.3-10.3-10.3H460.2c-29.3 0-53.2-23.9-53.2-53.2 0-20.3 11.4-38.6 29.7-47.7 27.5-13.7 44-37.2 44-62.9 0-40.8-41.5-74-92.4-74-51 0-92.4 33.2-92.4 74 0 25.7 16.4 49.2 44 62.9 18.3 9.1 29.7 27.4 29.7 47.7 0 29.3-23.9 53.2-53.2 53.2H66.6c-5.7 0-10.3 4.6-10.3 10.3v243.9c0 0.6 0.5 1 1 1 0.2 0 0.8-0.3 1.3-1.1 21.8-33.9 56.8-54.2 93.8-54.2 64 0 116.1 59.2 116.1 132s-52.1 132-116.1 132c-36.1 0-69.6-18.6-91.7-51-0.5-0.7-1-1-1.1-1h-2.4c-0.5 0-0.9 0.4-0.9 0.9v246.9c0 2.2 1.8 4 4 4h228.4c8.2 0 14.9-6.7 14.9-14.9v-4.5c0-4.9-2.6-9.5-7.1-12.8-31.6-22.5-49.7-55.5-49.7-90.4 0.1-65.1 63.5-118.3 141.5-118.3z" p-id="15118"></path></svg>