<svg t="1690995595108" class="icon" viewBox="0 0 1024 1024" version="1.1" xmlns="http://www.w3.org/2000/svg" p-id="6297" width="200" height="200"><path d="M51.9 623.6m-47.5 0a47.5 47.5 0 1 0 95 0 47.5 47.5 0 1 0-95 0Z" fill="#11AAED" p-id="6298"></path><path d="M975.9 671.1H252.6c-26.1 0-47.5-21.4-47.5-47.5s21.4-47.5 47.5-47.5H976c26.1 0 47.5 21.4 47.5 47.5-0.1 26.1-21.4 47.5-47.6 47.5z" fill="#11AAED" p-id="6299"></path><path d="M51.9 847.1m-47.5 0a47.5 47.5 0 1 0 95 0 47.5 47.5 0 1 0-95 0Z" fill="#11AAED" p-id="6300"></path><path d="M975.9 894.6H252.6c-26.1 0-47.5-21.4-47.5-47.5s21.4-47.5 47.5-47.5H976c26.1 0 47.5 21.4 47.5 47.5-0.1 26.1-21.4 47.5-47.6 47.5z" fill="#11AAED" p-id="6301"></path><path d="M51.9 400m-47.5 0a47.5 47.5 0 1 0 95 0 47.5 47.5 0 1 0-95 0Z" fill="#11AAED" p-id="6302"></path><path d="M975.9 447.6H252.6c-26.1 0-47.5-21.4-47.5-47.5s21.4-47.5 47.5-47.5H976c26.1 0 47.5 21.4 47.5 47.5-0.1 26.1-21.4 47.5-47.6 47.5z" fill="#11AAED" p-id="6303"></path><path d="M51.9 176.5m-47.5 0a47.5 47.5 0 1 0 95 0 47.5 47.5 0 1 0-95 0Z" fill="#11AAED" p-id="6304"></path><path d="M975.9 224H252.6c-26.1 0-47.5-21.4-47.5-47.5s21.4-47.5 47.5-47.5H976c26.1 0 47.5 21.4 47.5 47.5-0.1 26.2-21.4 47.5-47.6 47.5z" p-id="6305"></path></svg>