<svg t="1690587894222" class="icon" viewBox="0 0 1024 1024" version="1.1" xmlns="http://www.w3.org/2000/svg" p-id="30883" width="200" height="200"><path d="M929.946 780.356c-64.017-42.769-248.474-113.8-248.474-113.8l-112.009 233.83-29.064-63.13 28.399-56.917L512 723.44l-56.798 56.883 28.4 56.917-29.953 65.024L340.736 666.54s-184.457 71.031-248.457 113.8C28.28 823.091 0 1024 0 1024h1024s-18.756-193.348-94.054-243.644z m-418.85 241.852zM309.503 452.693c13.38 109.654 108.476 223.164 194.509 223.164 99.157 0 193.28-119.33 207.957-223.164 5.615-3.96 14.78-13.448 18.176-35.106 0 0 21.129-75.332-6.929-67.123 9.728-29.013 42.086-141.875-20.65-212.122 0 0-29.321-39.748-100.728-60.893l-33.434-11.401c-13.039-9.506-39.543-31.898-39.543-56.644 0 0-16.52 7.629-26.3 21.64 3.84-11.383 10.291-22.272 20.65-31.044 0 0-10.854 5.65-20.923 17.698-7.765 4.335-25.583 16.299-31.54 37.956l0.445-1.553s-3.67-4.761-13.62-6.229c-9.813-1.4-27.033 5.171-27.033 5.171S326.45 93.474 296.294 186.385c0 0-17.834 42.138 5.598 165.564-33.348-15.65-10.564 65.655-10.564 65.655 3.465 21.64 12.63 31.13 18.176 35.09zM499.132 21.794c-5.12 6.963-9.455 15.719-11.52 26.385l-3.72-1.314c2.832-9.182 7.73-17.613 15.24-25.07z" p-id="30884"></path></svg>